<svg xmlns="http://www.w3.org/2000/svg" width="600" height="400" viewBox="0 0 600 400">
  <defs>
    <linearGradient id="g" x1="0" y1="0" x2="1" y2="1">
      <stop offset="0" stop-color="#b45309"/>
      <stop offset="1" stop-color="#7c3605"/>
    </linearGradient>
  </defs>
  <rect width="600" height="400" fill="url(#g)"/>
  <g opacity="0.5">
    
    <path d="M 217.5,123.8 217.5,123.1 217.6,121.7 217.5,119.7 217.5,117.9 217.4,117.0 217.4,116.2 217.4,114.4 217.5,113.2 217.6,112.6 217.6,107.8 217.6,107.4 217.6,107.1 217.6,103.0 217.6,101.3 217.6,100.5 217.6,99.6 217.6,97.5 217.6,95.7 217.6,94.2 217.6,93.3 217.6,92.6 217.6,91.3 217.6,89.5 217.6,88.7 217.6,87.6 217.6,85.7 218.7,85.7 218.7,84.2 218.8,83.5 218.8,83.3 218.8,83.2 218.8,83.1 218.8,83.0 218.9,82.9 218.9,82.8 219.0,82.7 219.1,82.6 219.1,82.5 219.2,82.4 219.3,82.3 219.4,82.2 217.6,81.0 217.4,80.9 217.3,80.8 217.3,80.6 217.3,80.5 217.4,80.5 219.6,78.5 219.6,78.4 219.7,78.3 219.7,78.1 219.6,77.9 219.6,77.7 M 254.6,68.6 249.3,68.6 248.5,68.6 247.0,68.6 246.4,68.7 245.7,68.7 245.0,68.7 244.3,68.8 243.6,68.9 242.9,68.9 241.8,69.0 240.4,69.2 240.0,69.3 239.4,69.4 238.7,69.6 238.2,69.7 237.7,69.8 237.3,69.8 236.3,70.0 235.9,70.0 235.4,70.1 234.9,70.2 234.5,70.4 233.3,70.8 232.0,71.2 230.5,71.8 229.9,72.0 229.2,72.3 228.4,72.7 227.2,73.3 226.6,73.6 225.6,74.1 225.3,74.3 223.0,75.7 221.1,77.0 220.9,77.1 220.6,77.3 220.4,77.4 220.1,77.5 219.8,77.6 219.6,77.7 219.0,77.7 218.0,77.6 217.8,77.5 216.6,77.1 212.9,75.5 210.9,74.7 210.6,74.6 210.4,74.5 210.3,74.4 210.2,74.4 210.1,74.4 210.0,74.3 209.8,74.3 209.7,74.3 209.6,74.2 209.4,74.2 209.3,74.2 209.1,74.1 209.0,74.1 208.8,74.1 208.7,74.0 208.5,74.0 208.3,74.0 208.0,73.9 207.9,73.9 207.9,73.8 207.9,73.7 207.9,73.7" fill="none" stroke="rgba(255,255,255,0.92)" stroke-width="1.6" stroke-linecap="round"/><path d="M 376.1,198.8 376.0,198.8 375.9,198.7 375.9,198.6 376.5,197.6 377.0,196.7 377.0,196.5 377.1,196.3 377.2,196.2 377.3,195.9 377.4,195.7 377.7,195.1 377.9,194.7 378.1,194.5 379.2,193.0 379.5,192.8 380.4,192.0 381.3,191.3 383.4,189.7 383.7,189.4 383.8,189.3 384.0,189.0 385.8,186.9 385.9,186.8 385.9,186.5 386.0,184.7 386.0,182.9 386.1,177.0 385.9,177.1 382.6,177.0 381.4,177.0 381.4,176.0 381.4,175.1 381.4,174.1 381.4,173.2 381.4,172.2 381.4,171.3 381.4,170.3 381.4,169.4 381.4,168.2 381.4,167.3 381.5,167.1 380.7,165.6 380.5,165.2 379.7,163.7 379.4,163.2 378.9,162.2 378.7,161.8 381.0,159.6 381.8,158.9 382.6,157.9 382.9,157.6 383.8,156.7 384.9,155.5 384.9,155.2 386.2,155.2 386.2,154.1 386.3,154.0 392.0,149.4 393.3,148.3 397.6,144.8 398.8,143.9 399.2,143.5 399.5,143.4 400.0,143.0 400.5,142.7 401.1,142.4 401.4,142.3 401.7,142.1 401.8,142.1 402.0,142.0 402.4,141.9 402.5,141.8 402.6,141.8 402.8,141.7 402.9,141.7 403.0,141.6 403.2,141.6 403.3,141.5 403.4,141.5 403.6,141.5 403.7,141.4 403.8,141.4 404.0,141.4 404.1,141.3 404.2,141.3 404.4,141.3 404.5,141.2 404.7,141.2 404.8,141.2 405.0,141.1 405.2,141.1 405.4,141.0 405.7,141.0 405.9,141.0 406.1,141.0 406.4,140.9 406.6,140.9 406.8,140.9 407.2,140.9 407.5,140.9 407.8,140.8 408.0,140.8 408.3,140.8 423.4,140.9 M 376.1,198.8 376.3,198.9 376.8,199.9 376.8,200.9 376.7,202.9 376.7,204.9 376.7,207.5" fill="none" stroke="rgba(255,255,255,0.92)" stroke-width="1.6" stroke-linecap="round"/><path d="M 386.0,182.9 387.0,182.9 387.2,182.9 387.5,182.8 387.8,182.7 387.9,182.6 391.1,182.6 391.6,182.7 391.8,182.8 396.4,182.8 396.4,184.5 396.3,184.7 396.3,185.8 396.4,186.7 396.4,187.3 396.3,188.6 396.4,191.1 396.3,192.4 396.3,193.5 396.3,195.6 396.3,197.8 396.3,199.4 396.3,200.0 396.3,201.8 396.3,203.9 396.3,205.7 396.3,206.0 396.2,208.1 396.2,210.9 396.2,218.3 396.2,220.9 396.2,221.1 396.2,222.0 396.2,223.2 396.2,224.1 396.2,225.4 396.0,227.0 395.9,227.5 395.8,227.9 395.7,228.2 395.6,228.5 395.5,228.8 395.3,229.2 395.2,229.4 395.1,229.6 394.9,229.8 394.7,230.1 394.6,230.3 394.6,230.4" fill="none" stroke="rgba(255,255,255,0.92)" stroke-width="1.6" stroke-linecap="round"/><path d="M 287.9,223.2 287.9,222.2 287.9,221.2 287.9,220.2 287.9,219.4 287.9,219.2 288.0,218.3 288.0,217.2 288.0,216.0 288.0,215.1 288.0,214.8 288.0,213.0 288.0,210.9 288.0,208.9 288.0,199.9 287.9,199.2 286.5,195.2" fill="none" stroke="rgba(255,255,255,0.92)" stroke-width="1.6" stroke-linecap="round"/><path d="M 329.6,238.1 328.2,238.1 326.7,238.1 323.9,238.1 323.8,238.1 323.7,238.1 323.6,238.1 323.6,238.1 323.5,238.1 323.5,238.0 323.4,238.0 M 323.4,238.0 320.2,238.0 317.0,238.0 314.8,238.0 313.8,238.0 313.6,238.0 311.1,237.9 308.5,238.0 306.2,238.0 303.5,238.0 301.7,238.0 300.9,238.0 298.3,238.0 297.1,238.0 295.8,238.0 292.4,238.0 287.8,238.0 286.0,238.0 283.1,238.1 278.6,238.1 273.7,238.1" fill="none" stroke="rgba(255,255,255,0.92)" stroke-width="1.6" stroke-linecap="round"/><path d="M 259.5,297.9 257.7,297.9 254.9,297.9 250.2,297.9 245.5,297.9 245.2,297.9 242.4,297.9 236.5,298.0 231.8,297.9 226.1,297.9 M 259.5,297.9 259.6,297.9 259.6,298.0 259.7,298.0 259.8,298.0 264.2,298.0 264.8,298.0 268.8,298.0 271.9,297.9 273.5,297.9 276.8,297.9 278.1,297.9 282.9,297.9 287.5,297.9 291.8,297.9 291.9,297.9 292.1,297.9 292.2,297.8 M 292.2,297.8 292.1,297.7 292.0,297.7 291.8,297.6 287.5,297.6 282.9,297.7 278.1,297.7 276.8,297.7 273.5,297.7 272.0,297.7 268.8,297.7 264.2,297.7 264.2,297.7 260.9,297.7 259.8,297.7 259.7,297.7 259.6,297.8 259.5,297.9 M 292.2,297.8 296.9,297.8 301.6,297.7 306.3,297.7 310.6,297.7 310.9,297.7 314.7,297.7 319.6,297.7 321.9,297.8 324.5,297.7 329.2,297.8 332.5,297.8 334.9,297.8 336.2,297.8 337.7,297.8 340.4,297.8 344.3,297.8 348.0,297.8 349.8,297.8 350.2,297.8 352.3,297.8 356.2,297.8 358.6,297.8 359.9,297.8 M 360.0,297.8 361.3,297.7 363.7,297.7 366.9,297.7 371.3,297.7 376.0,297.7" fill="none" stroke="rgba(255,255,255,0.92)" stroke-width="1.6" stroke-linecap="round"/><path d="M 423.2,367.4 424.5,367.4 427.3,367.4 429.7,367.4 431.2,367.4 432.4,367.4 436.4,367.4 437.7,367.4 439.7,367.4 441.6,367.4 446.2,367.4 446.6,367.4 450.8,367.4 452.0,367.4 454.3,367.4 455.4,367.4 458.0,367.4 459.2,367.4 460.2,367.4 476.3,367.5 476.6,367.5 492.1,367.5 496.5,367.4 497.7,367.4 503.0,367.5 504.6,367.5 508.0,367.5 510.6,367.5 515.4,367.4 516.4,367.4 522.1,367.4 523.1,367.4 530.1,367.4 530.3,367.4 533.3,367.4 533.7,367.4 534.9,367.5 535.0,367.5 540.1,367.4 542.8,367.4 545.6,367.4 552.9,367.4 553.5,367.4 558.1,367.4 562.1,367.4 563.1,367.4 572.0,367.4" fill="none" stroke="rgba(255,255,255,0.92)" stroke-width="1.6" stroke-linecap="round"/><path d="M 321.1,123.4 321.1,122.7 321.0,122.3 320.9,121.9 320.8,121.4 320.6,121.2 320.4,120.6 320.1,119.9 M 320.1,119.9 320.0,119.6 319.8,119.4 319.7,119.3 319.6,119.2 319.3,119.1 318.1,118.4 M 320.1,119.9 320.6,121.2 321.4,120.8 322.0,120.4 322.5,120.2 322.8,120.0 323.7,119.8 324.1,119.7 324.6,119.7 325.2,119.7 325.6,119.7 325.7,119.7 325.9,119.6" fill="none" stroke="rgba(255,255,255,0.92)" stroke-width="1.6" stroke-linecap="round"/><path d="M 255.4,185.6 255.4,186.1 255.4,186.7 255.4,186.9 255.4,187.4 255.4,187.9 255.4,189.0 255.4,189.5 255.4,191.3 255.4,192.0 255.4,193.4 255.4,193.6 255.3,193.9 255.3,195.0 255.3,195.7 255.3,196.8 255.3,197.8 255.3,199.2 255.3,200.0 255.3,200.7 255.3,202.0 255.3,202.2 255.3,203.1 255.3,204.3 255.3,205.2 255.2,206.5 255.2,208.1 255.2,208.6 255.2,208.7 255.2,208.9 255.2,209.5 255.2,210.3 255.2,211.0 255.2,212.3 255.2,213.1 255.2,214.3 255.2,215.2 M 255.4,185.6 255.4,185.6 255.5,185.5 255.5,185.4 255.5,184.9 255.5,184.8 M 264.7,169.5 255.3,169.5 255.5,170.9 255.4,184.8 255.4,184.8 255.3,184.9 255.3,185.5 255.3,185.5 255.3,185.6 255.4,185.6 M 264.7,169.5 264.8,162.3 264.8,154.1 M 246.3,97.6 255.7,97.5 255.6,99.2 255.6,100.7 255.6,102.1 255.6,102.9 255.6,103.7 255.6,103.9 255.6,105.4 255.6,107.5 255.6,108.6 255.6,109.6 255.6,111.7 255.5,113.6 255.5,114.7 255.5,115.3 255.5,116.6 255.5,117.0 255.5,118.3 255.5,118.7 255.5,119.7 255.5,120.3 255.5,121.9 255.5,123.2 255.5,123.8 255.5,126.7 255.7,126.6 260.2,126.6 264.7,126.5 264.9,126.6 264.9,128.4 264.9,129.7 264.9,130.3 264.9,131.2 264.9,132.3 264.9,132.9 264.9,134.2 264.9,135.7 264.9,136.4 264.9,136.7 264.9,138.0 264.9,139.8 264.9,140.8 264.9,141.8 264.9,143.8 264.6,143.8 264.5,143.9 262.6,143.9 263.1,144.8 263.2,145.1 264.0,146.5 264.9,146.4 264.8,154.1" fill="none" stroke="rgba(255,255,255,0.92)" stroke-width="1.6" stroke-linecap="round"/><path d="M 340.8,207.5 348.3,207.5 350.9,207.5 353.5,207.4 355.8,207.4 358.9,207.4 362.2,207.4 367.0,207.4 367.4,207.4 369.2,207.4 370.6,207.4 372.0,207.4 372.4,207.4 375.1,207.5 377.9,207.5 379.5,207.5 380.5,207.5 381.1,207.5 383.7,207.5 385.9,207.5 387.3,207.5 388.3,207.5 388.5,207.5 388.8,207.3 390.2,205.9 390.4,205.9 390.7,205.8 392.4,205.8 396.3,205.9" fill="none" stroke="rgba(255,255,255,0.92)" stroke-width="1.6" stroke-linecap="round"/><path d="M 259.5,269.6 263.0,269.6 265.9,269.6 268.8,269.5 269.6,269.5 273.5,269.5 273.9,269.4 274.5,269.3 275.0,269.1 277.3,268.0 279.6,266.9 284.0,264.9 287.5,263.2 288.3,262.8 289.5,262.3 290.4,261.8 291.2,261.1 293.2,259.6 298.2,255.7 298.4,255.5 298.9,255.1 302.5,252.4 303.7,251.5 304.2,251.1 304.8,250.6 305.5,250.0 305.5,249.8" fill="none" stroke="rgba(255,255,255,0.92)" stroke-width="1.6" stroke-linecap="round"/><path d="M 311.3,207.8 311.3,209.4 311.1,240.9 311.1,242.3 311.0,244.0 311.0,244.2 311.0,244.9 311.0,245.5 311.0,245.5 310.9,245.6 310.5,245.8 310.2,246.1 309.9,246.3 309.0,247.0 307.9,247.9 306.7,248.8 305.9,249.4 305.5,249.8" fill="none" stroke="rgba(255,255,255,0.92)" stroke-width="1.6" stroke-linecap="round"/><path d="M 340.8,207.5 340.8,207.5 337.6,207.4 334.3,207.5 330.0,207.4 326.7,207.4 323.5,207.4 321.6,207.4 320.7,207.4 317.2,207.5 312.1,207.4 311.8,207.5 311.6,207.5 311.4,207.6 311.3,207.8" fill="none" stroke="rgba(255,255,255,0.92)" stroke-width="1.6" stroke-linecap="round"/><path d="M 340.4,277.8 340.4,280.8" fill="none" stroke="rgba(255,255,255,0.92)" stroke-width="1.6" stroke-linecap="round"/><path d="M 329.9,245.5 329.8,261.8 329.8,268.5 329.7,273.5 329.6,280.0 329.4,285.9 329.2,293.3 329.2,295.5 329.2,297.8 329.2,304.4 329.3,306.5 329.3,306.9 329.3,308.7 329.3,310.7 329.4,319.1 329.4,322.0" fill="none" stroke="rgba(255,255,255,0.92)" stroke-width="1.6" stroke-linecap="round"/><path d="M 311.4,195.4 311.4,197.7 311.4,199.3 311.4,200.1 311.4,201.3 311.4,202.6 311.3,204.6 311.4,205.8 311.4,206.6 311.4,207.7" fill="none" stroke="rgba(255,255,255,0.92)" stroke-width="1.6" stroke-linecap="round"/><path d="M 333.5,229.3 332.0,229.2 329.6,229.2 329.6,229.2 M 329.6,229.2 329.6,229.2 M 329.6,229.2 329.6,229.2 326.5,229.1 323.1,229.0 320.3,229.0" fill="none" stroke="rgba(255,255,255,0.92)" stroke-width="1.6" stroke-linecap="round"/><path d="M 340.3,321.8 340.4,265.2 340.3,258.8 340.3,249.2 340.1,245.4 340.0,241.0" fill="none" stroke="rgba(255,255,255,0.92)" stroke-width="1.6" stroke-linecap="round"/><path d="M 320.7,207.4 320.7,207.5 320.6,207.7 320.6,208.0 320.6,208.3 320.6,209.8 320.6,211.3 320.5,212.4 320.5,214.4 320.5,214.8 320.5,215.3 320.5,215.6 320.4,217.9 320.4,218.1 320.3,218.3 320.3,218.3 320.3,218.8 320.3,220.3 320.3,222.4 320.3,224.6 320.3,226.8 320.3,229.0 320.3,229.8 320.3,229.9 320.3,231.2 320.2,238.0 320.2,240.9" fill="none" stroke="rgba(255,255,255,0.92)" stroke-width="1.6" stroke-linecap="round"/><path d="M 311.1,228.9 317.0,228.9 320.3,229.0" fill="none" stroke="rgba(255,255,255,0.92)" stroke-width="1.6" stroke-linecap="round"/><path d="M 320.8,169.3 320.9,169.4 320.9,171.9 320.9,173.5 320.9,175.7 320.8,177.1 320.8,177.2 320.8,177.2 320.8,177.3 320.8,177.4 320.7,177.6 320.6,177.7 320.6,177.8 320.4,178.0 320.3,178.1 320.2,178.2 320.1,178.3 320.0,178.5 320.0,178.6 320.0,178.7 320.0,178.8 320.0,179.0 320.0,179.4 320.0,179.8 320.0,180.2 319.9,182.4 320.0,184.4 320.0,184.5 320.0,184.7 320.1,184.8 320.1,184.9 320.1,185.0 320.1,186.7 320.1,188.9 320.1,191.1 320.1,193.2 320.1,195.4 320.1,196.4 320.2,196.6 320.3,196.8 320.5,197.1 320.6,197.4 320.7,197.7 320.7,198.8 320.7,199.7 320.8,199.8 320.7,201.9 320.7,202.4 320.7,204.9 320.7,205.5 320.7,205.8 320.7,207.4" fill="none" stroke="rgba(255,255,255,0.92)" stroke-width="1.6" stroke-linecap="round"/><path d="M 321.1,123.4 321.1,125.5 321.1,127.5 321.1,129.5 321.1,131.6 321.1,133.6 321.1,135.7 321.1,137.7 321.0,139.7 321.0,141.8 321.0,143.9 321.0,146.5 320.9,148.8 321.0,150.4 320.9,152.6 320.9,154.0 320.8,155.2 320.8,157.1 320.8,159.2 320.8,161.3 320.8,163.2 320.8,165.2 320.8,167.2 320.8,169.3" fill="none" stroke="rgba(255,255,255,0.92)" stroke-width="1.6" stroke-linecap="round"/><path d="M 320.2,196.6 320.0,196.4 319.5,196.0 319.0,195.7 318.4,195.5 317.9,195.5 317.4,195.5 314.1,195.5 311.4,195.5 310.4,195.5 308.9,195.5 308.5,195.5 305.5,195.5 305.5,193.3 302.2,193.3 299.7,193.3 297.1,193.3 293.7,193.3 289.6,193.3 289.9,194.3 288.2,194.8 286.6,195.2 288.0,199.9 287.9,223.2" fill="none" stroke="rgba(255,255,255,0.92)" stroke-width="1.6" stroke-linecap="round"/><path d="M 286.5,195.2 285.7,193.1 283.3,193.1 278.6,193.1 274.3,193.1 274.0,193.3 273.7,193.5 270.4,193.5 266.8,193.5 264.7,193.5 261.1,193.5 258.9,193.5 255.6,193.5 255.4,193.5 255.2,193.4 252.9,193.5 249.3,193.5 242.4,193.5 236.3,193.5 231.7,193.5 227.2,193.5 226.8,193.5 222.1,193.4 217.4,193.4 212.7,193.3 207.6,193.2 199.1,193.2 180.4,193.2 180.4,199.7 28.0,199.7" fill="none" stroke="rgba(255,255,255,0.92)" stroke-width="1.6" stroke-linecap="round"/><path d="M 320.8,199.8 323.6,199.8 326.8,199.8 330.1,199.9 334.5,199.8 337.8,199.8 340.9,199.8 341.5,199.8 345.3,199.8 349.5,199.8 350.4,199.9 351.2,199.7 351.6,199.6 355.8,199.5 355.8,200.9 355.8,207.4" fill="none" stroke="rgba(255,255,255,0.92)" stroke-width="1.6" stroke-linecap="round"/><path d="M 311.1,240.9 311.4,240.8 311.7,240.8 312.5,240.9 313.0,240.9 313.7,240.9 317.0,240.9 320.2,240.9" fill="none" stroke="rgba(255,255,255,0.92)" stroke-width="1.6" stroke-linecap="round"/><path d="M 320.2,240.9 320.2,243.2 320.2,245.5 320.2,247.8 320.2,249.9 315.9,249.9 311.0,249.9 307.1,249.9 305.5,249.9" fill="none" stroke="rgba(255,255,255,0.92)" stroke-width="1.6" stroke-linecap="round"/><path d="M 279.6,266.9 279.8,267.1 280.8,268.5 281.8,269.9 282.3,270.7 282.3,271.7 282.3,272.3 282.3,273.9 282.3,274.2 282.3,276.1 282.3,278.1 282.3,280.0 282.3,281.0 282.3,282.2 282.2,283.0 282.2,284.2 282.1,284.8" fill="none" stroke="rgba(255,255,255,0.92)" stroke-width="1.6" stroke-linecap="round"/><path d="M 330.0,207.4 330.0,209.7 329.9,212.4 329.9,214.1 329.8,214.7 329.7,215.2 329.7,215.6 329.7,216.7 329.7,218.2 329.7,220.4 329.6,222.6 329.6,224.8" fill="none" stroke="rgba(255,255,255,0.92)" stroke-width="1.6" stroke-linecap="round"/><path d="M 273.7,238.1 271.9,238.1 271.7,238.1 271.5,238.1 271.3,238.0 271.1,238.0 270.9,237.9 270.7,237.8 270.5,237.7 270.4,237.6 270.2,237.5 270.1,237.4 270.0,237.2 269.9,237.1 269.8,236.9 269.7,236.8 269.7,236.6 269.7,236.4 269.7,236.0 269.7,232.0 269.6,231.7 269.6,231.4 269.5,231.2 269.3,231.0 269.2,230.8 269.1,230.8 268.9,230.6 268.7,230.5 268.6,230.4 268.5,230.3 268.3,230.2 268.0,230.1 267.9,230.1 266.9,230.0 264.5,229.4 263.1,228.8 255.2,226.4 252.3,225.7 249.0,224.9 246.2,224.4 244.6,224.3 242.9,224.2 241.2,224.2 239.8,224.3 238.2,224.5 237.2,224.5 236.2,224.5 235.8,224.5" fill="none" stroke="rgba(255,255,255,0.92)" stroke-width="1.6" stroke-linecap="round"/><path d="M 329.6,224.8 319.3,224.6 317.1,224.5 314.0,224.4 312.2,224.4 311.9,224.4 311.8,224.4 311.7,224.4 311.6,224.4 311.5,224.4 311.4,224.3 311.3,224.3 311.2,224.3 311.2,224.2 311.1,224.1 311.1,224.1 311.1,224.0 311.0,224.0 311.0,223.9 311.0,223.9 310.7,223.7 310.6,223.6 310.4,223.5 310.3,223.4 310.2,223.3 310.0,223.3 309.8,223.2 309.7,223.2 309.5,223.2 309.3,223.2 309.0,223.2 308.0,223.1 307.7,223.1 307.0,223.1 306.3,223.1 304.8,223.1 302.2,223.1 301.9,223.1 299.5,223.1 296.2,223.2 292.6,223.2 292.4,223.2 287.9,223.2" fill="none" stroke="rgba(255,255,255,0.92)" stroke-width="1.6" stroke-linecap="round"/><path d="M 311.4,195.4 311.4,184.5 311.5,169.3 311.7,154.0" fill="none" stroke="rgba(255,255,255,0.92)" stroke-width="1.6" stroke-linecap="round"/><path d="M 308.4,100.7 316.6,100.7 317.4,100.6 317.7,100.6 317.8,100.4 317.8,100.3 317.7,91.9 317.6,81.5 317.6,79.6 317.5,78.3 317.2,76.6 316.9,74.6 315.9,68.6 315.6,66.5 315.7,65.3 315.8,64.2 316.0,62.9 317.9,62.9 317.8,62.7 316.9,61.0 316.8,60.8 316.9,60.2 317.3,58.6 317.4,57.9 317.5,56.5 317.3,54.7 316.9,51.9 316.6,48.7 316.5,47.5 316.5,44.8 316.5,37.0 316.4,34.8 316.5,32.5" fill="none" stroke="rgba(255,255,255,0.92)" stroke-width="1.6" stroke-linecap="round"/><path d="M 355.8,200.9 362.2,200.9 385.9,201.0 386.1,200.1 400.0,200.0 421.3,200.1 422.4,200.0 423.3,200.0 424.3,199.9 424.9,199.9 425.5,199.9 426.0,199.9 437.9,199.9 439.4,199.9 439.7,199.9 440.3,200.0 443.1,200.1 446.9,200.1 460.2,200.1" fill="none" stroke="rgba(255,255,255,0.92)" stroke-width="1.6" stroke-linecap="round"/><path d="M 394.6,230.4 399.2,230.5 411.5,230.6 418.1,230.6 419.3,230.6 421.1,230.4 423.2,230.5" fill="none" stroke="rgba(255,255,255,0.92)" stroke-width="1.6" stroke-linecap="round"/><path d="M 369.0,229.9 373.9,230.3 394.6,230.4" fill="none" stroke="rgba(255,255,255,0.92)" stroke-width="1.6" stroke-linecap="round"/><path d="M 396.2,221.0 394.5,221.0 392.5,221.0 389.3,221.0 388.4,221.0 384.0,221.0 381.0,221.0 380.6,221.0 377.7,220.9 376.7,220.9 374.3,220.9 366.3,220.8 363.6,221.2 361.1,222.2" fill="none" stroke="rgba(255,255,255,0.92)" stroke-width="1.6" stroke-linecap="round"/><path d="M 344.2,229.5 355.6,229.7 362.8,229.7 365.0,229.7 365.4,229.6 366.2,229.6 366.9,229.6 367.8,229.7 369.0,229.8 M 329.6,224.8 344.3,225.1 354.5,225.3 355.1,225.3 355.5,225.4" fill="none" stroke="rgba(255,255,255,0.92)" stroke-width="1.6" stroke-linecap="round"/><path d="M 255.2,215.3 255.1,246.8 255.5,248.0 257.0,250.5 257.7,252.0 258.3,253.7 259.1,257.6" fill="none" stroke="rgba(255,255,255,0.92)" stroke-width="1.6" stroke-linecap="round"/><path d="M 275.6,146.4 302.1,146.5 320.9,146.6" fill="none" stroke="rgba(255,255,255,0.92)" stroke-width="1.6" stroke-linecap="round"/>
    
  </g>
  <text x="44" y="362" font-family="system-ui, sans-serif" font-size="21" letter-spacing="3" fill="rgba(255,255,255,0.95)">Infrastructure</text>
  <text x="44" y="384" font-family="system-ui, sans-serif" font-size="12" letter-spacing="1" fill="rgba(255,255,255,0.65)">REAL GEOMETRY · 40 line features</text>
</svg>
