<svg xmlns="http://www.w3.org/2000/svg" width="600" height="400" viewBox="0 0 600 400">
  <defs>
    <linearGradient id="g" x1="0" y1="0" x2="1" y2="1">
      <stop offset="0" stop-color="#b91c1c"/>
      <stop offset="1" stop-color="#7f1212"/>
    </linearGradient>
  </defs>
  <rect width="600" height="400" fill="url(#g)"/>
  <g opacity="0.5">
    
    
    <circle cx="299.4" cy="217.1" r="2.6"/><circle cx="201.8" cy="28.0" r="2.6"/><circle cx="320.4" cy="354.7" r="2.6"/><circle cx="360.2" cy="150.3" r="2.6"/><circle cx="218.5" cy="167.8" r="2.6"/><circle cx="300.7" cy="217.4" r="2.6"/><circle cx="301.7" cy="217.0" r="2.6"/><circle cx="373.3" cy="143.3" r="2.6"/><circle cx="299.4" cy="214.8" r="2.6"/><circle cx="213.5" cy="209.0" r="2.6"/><circle cx="479.5" cy="346.9" r="2.6"/><circle cx="213.7" cy="242.6" r="2.6"/><circle cx="326.0" cy="218.2" r="2.6"/><circle cx="511.4" cy="372.0" r="2.6"/><circle cx="190.1" cy="95.1" r="2.6"/><circle cx="88.6" cy="165.8" r="2.6"/><circle cx="396.5" cy="262.7" r="2.6"/><circle cx="299.7" cy="213.8" r="2.6"/><circle cx="297.1" cy="215.1" r="2.6"/><circle cx="309.2" cy="215.8" r="2.6"/><circle cx="210.8" cy="303.5" r="2.6"/>
  </g>
  <text x="44" y="362" font-family="system-ui, sans-serif" font-size="21" letter-spacing="3" fill="rgba(255,255,255,0.95)">Public Safety</text>
  <text x="44" y="384" font-family="system-ui, sans-serif" font-size="12" letter-spacing="1" fill="rgba(255,255,255,0.65)">REAL GEOMETRY · 21 points</text>
</svg>
