<svg xmlns="http://www.w3.org/2000/svg" width="600" height="400" viewBox="0 0 600 400">
  <defs>
    <linearGradient id="g" x1="0" y1="0" x2="1" y2="1">
      <stop offset="0" stop-color="#b45309"/>
      <stop offset="1" stop-color="#7c3605"/>
    </linearGradient>
  </defs>
  <rect width="600" height="400" fill="url(#g)"/>
  <g opacity="0.5">
    
    
    <circle cx="567.2" cy="335.2" r="2.6"/><circle cx="568.1" cy="324.1" r="2.6"/><circle cx="567.2" cy="312.8" r="2.6"/><circle cx="567.0" cy="301.5" r="2.6"/><circle cx="570.1" cy="290.1" r="2.6"/><circle cx="570.7" cy="279.1" r="2.6"/><circle cx="572.0" cy="267.9" r="2.6"/><circle cx="547.2" cy="256.6" r="2.6"/><circle cx="546.5" cy="245.2" r="2.6"/><circle cx="532.8" cy="346.3" r="2.6"/><circle cx="533.1" cy="335.8" r="2.6"/><circle cx="532.9" cy="323.7" r="2.6"/><circle cx="532.8" cy="301.4" r="2.6"/><circle cx="532.8" cy="284.8" r="2.6"/><circle cx="519.1" cy="245.3" r="2.6"/><circle cx="519.6" cy="233.9" r="2.6"/><circle cx="505.7" cy="335.0" r="2.6"/><circle cx="505.6" cy="323.8" r="2.6"/><circle cx="505.7" cy="312.4" r="2.6"/><circle cx="505.3" cy="301.2" r="2.6"/><circle cx="505.2" cy="267.6" r="2.6"/><circle cx="504.2" cy="245.3" r="2.6"/><circle cx="506.1" cy="111.2" r="2.6"/><circle cx="505.8" cy="99.9" r="2.6"/><circle cx="505.9" cy="88.4" r="2.6"/><circle cx="505.5" cy="77.6" r="2.6"/><circle cx="475.2" cy="323.4" r="2.6"/><circle cx="474.8" cy="301.0" r="2.6"/><circle cx="473.6" cy="245.1" r="2.6"/><circle cx="479.2" cy="234.1" r="2.6"/><circle cx="458.3" cy="133.1" r="2.6"/><circle cx="465.1" cy="65.9" r="2.6"/><circle cx="465.6" cy="55.1" r="2.6"/><circle cx="465.3" cy="43.7" r="2.6"/><circle cx="444.8" cy="301.0" r="2.6"/><circle cx="444.4" cy="289.8" r="2.6"/><circle cx="446.1" cy="278.8" r="2.6"/><circle cx="446.9" cy="256.4" r="2.6"/><circle cx="451.3" cy="233.8" r="2.6"/><circle cx="451.6" cy="189.6" r="2.6"/><circle cx="451.3" cy="178.2" r="2.6"/><circle cx="451.9" cy="166.8" r="2.6"/><circle cx="445.6" cy="155.7" r="2.6"/><circle cx="444.7" cy="133.2" r="2.6"/><circle cx="451.3" cy="88.6" r="2.6"/><circle cx="437.9" cy="334.6" r="2.6"/><circle cx="438.1" cy="312.2" r="2.6"/><circle cx="438.1" cy="189.2" r="2.6"/><circle cx="437.8" cy="66.0" r="2.6"/><circle cx="424.2" cy="334.4" r="2.6"/><circle cx="424.1" cy="133.3" r="2.6"/><circle cx="424.1" cy="122.1" r="2.6"/><circle cx="424.3" cy="99.7" r="2.6"/><circle cx="416.4" cy="312.1" r="2.6"/><circle cx="413.9" cy="267.6" r="2.6"/><circle cx="413.6" cy="155.7" r="2.6"/><circle cx="409.8" cy="356.7" r="2.6"/><circle cx="411.1" cy="245.3" r="2.6"/><circle cx="410.4" cy="234.0" r="2.6"/><circle cx="410.3" cy="222.6" r="2.6"/><circle cx="410.8" cy="211.9" r="2.6"/><circle cx="410.8" cy="200.4" r="2.6"/><circle cx="410.8" cy="189.3" r="2.6"/><circle cx="410.7" cy="178.0" r="2.6"/><circle cx="408.4" cy="88.7" r="2.6"/><circle cx="410.5" cy="77.4" r="2.6"/><circle cx="397.2" cy="334.4" r="2.6"/><circle cx="396.7" cy="109.5" r="2.6"/><circle cx="396.4" cy="77.4" r="2.6"/><circle cx="383.5" cy="301.0" r="2.6"/><circle cx="383.5" cy="271.9" r="2.6"/><circle cx="383.3" cy="245.0" r="2.6"/><circle cx="383.8" cy="222.9" r="2.6"/><circle cx="383.3" cy="200.5" r="2.6"/><circle cx="381.6" cy="155.8" r="2.6"/><circle cx="367.5" cy="334.3" r="2.6"/><circle cx="371.8" cy="133.3" r="2.6"/><circle cx="367.1" cy="99.6" r="2.6"/><circle cx="369.4" cy="77.4" r="2.6"/><circle cx="356.5" cy="311.7" r="2.6"/><circle cx="356.4" cy="301.0" r="2.6"/><circle cx="347.1" cy="278.6" r="2.6"/><circle cx="356.5" cy="267.3" r="2.6"/><circle cx="356.5" cy="200.6" r="2.6"/><circle cx="356.1" cy="178.2" r="2.6"/><circle cx="357.7" cy="155.7" r="2.6"/><circle cx="336.2" cy="334.3" r="2.6"/><circle cx="341.6" cy="127.9" r="2.6"/><circle cx="329.1" cy="323.5" r="2.6"/><circle cx="328.9" cy="312.2" r="2.6"/><circle cx="328.9" cy="278.8" r="2.6"/><circle cx="320.8" cy="256.2" r="2.6"/><circle cx="325.4" cy="234.1" r="2.6"/><circle cx="325.0" cy="177.9" r="2.6"/><circle cx="326.4" cy="166.7" r="2.6"/><circle cx="327.6" cy="155.4" r="2.6"/><circle cx="315.1" cy="289.7" r="2.6"/><circle cx="306.6" cy="133.3" r="2.6"/><circle cx="295.5" cy="267.4" r="2.6"/><circle cx="304.8" cy="228.2" r="2.6"/><circle cx="296.6" cy="199.4" r="2.6"/><circle cx="288.5" cy="178.0" r="2.6"/><circle cx="274.3" cy="345.5" r="2.6"/><circle cx="276.8" cy="133.3" r="2.6"/><circle cx="276.5" cy="99.8" r="2.6"/><circle cx="277.2" cy="66.0" r="2.6"/><circle cx="265.9" cy="268.1" r="2.6"/><circle cx="266.5" cy="245.1" r="2.6"/><circle cx="266.4" cy="223.0" r="2.6"/><circle cx="264.1" cy="177.8" r="2.6"/><circle cx="266.1" cy="155.5" r="2.6"/><circle cx="244.8" cy="122.2" r="2.6"/><circle cx="239.1" cy="43.4" r="2.6"/><circle cx="236.2" cy="267.6" r="2.6"/><circle cx="236.0" cy="245.1" r="2.6"/><circle cx="237.4" cy="222.8" r="2.6"/><circle cx="220.1" cy="345.5" r="2.6"/><circle cx="221.8" cy="323.4" r="2.6"/><circle cx="218.0" cy="120.8" r="2.6"/><circle cx="211.2" cy="54.6" r="2.6"/><circle cx="209.9" cy="43.3" r="2.6"/><circle cx="205.7" cy="256.2" r="2.6"/><circle cx="206.0" cy="222.1" r="2.6"/><circle cx="207.2" cy="200.3" r="2.6"/><circle cx="207.4" cy="178.0" r="2.6"/><circle cx="205.5" cy="166.6" r="2.6"/><circle cx="207.2" cy="155.5" r="2.6"/><circle cx="203.8" cy="65.8" r="2.6"/><circle cx="188.3" cy="122.2" r="2.6"/><circle cx="187.0" cy="77.0" r="2.6"/><circle cx="186.9" cy="65.8" r="2.6"/><circle cx="177.7" cy="301.0" r="2.6"/><circle cx="177.3" cy="245.1" r="2.6"/><circle cx="177.3" cy="211.5" r="2.6"/><circle cx="176.6" cy="200.2" r="2.6"/><circle cx="176.7" cy="189.2" r="2.6"/><circle cx="175.2" cy="177.8" r="2.6"/><circle cx="177.4" cy="155.4" r="2.6"/><circle cx="165.6" cy="334.1" r="2.6"/><circle cx="157.6" cy="178.1" r="2.6"/><circle cx="156.7" cy="122.0" r="2.6"/><circle cx="156.6" cy="99.7" r="2.6"/><circle cx="155.8" cy="65.8" r="2.6"/><circle cx="143.9" cy="322.9" r="2.6"/><circle cx="148.2" cy="290.0" r="2.6"/><circle cx="145.1" cy="267.7" r="2.6"/><circle cx="146.0" cy="245.2" r="2.6"/><circle cx="150.1" cy="211.6" r="2.6"/><circle cx="131.1" cy="289.8" r="2.6"/><circle cx="117.8" cy="267.7" r="2.6"/><circle cx="118.1" cy="256.4" r="2.6"/><circle cx="111.6" cy="234.0" r="2.6"/><circle cx="117.7" cy="222.8" r="2.6"/><circle cx="117.7" cy="200.4" r="2.6"/><circle cx="118.0" cy="166.7" r="2.6"/><circle cx="117.2" cy="155.5" r="2.6"/><circle cx="128.5" cy="133.2" r="2.6"/><circle cx="129.8" cy="77.1" r="2.6"/><circle cx="83.4" cy="323.0" r="2.6"/><circle cx="88.8" cy="301.1" r="2.6"/><circle cx="87.8" cy="289.9" r="2.6"/><circle cx="86.2" cy="267.7" r="2.6"/><circle cx="87.8" cy="222.6" r="2.6"/><circle cx="84.4" cy="166.7" r="2.6"/><circle cx="95.6" cy="144.4" r="2.6"/><circle cx="99.5" cy="122.1" r="2.6"/><circle cx="100.0" cy="99.8" r="2.6"/><circle cx="68.9" cy="133.3" r="2.6"/><circle cx="67.9" cy="99.7" r="2.6"/><circle cx="55.7" cy="279.8" r="2.6"/><circle cx="57.9" cy="245.3" r="2.6"/><circle cx="58.6" cy="222.7" r="2.6"/><circle cx="56.7" cy="211.4" r="2.6"/><circle cx="57.4" cy="200.3" r="2.6"/><circle cx="58.2" cy="189.1" r="2.6"/><circle cx="39.6" cy="144.5" r="2.6"/><circle cx="39.6" cy="110.7" r="2.6"/><circle cx="39.8" cy="88.4" r="2.6"/><circle cx="39.7" cy="77.2" r="2.6"/><circle cx="28.5" cy="290.0" r="2.6"/><circle cx="28.6" cy="267.6" r="2.6"/><circle cx="28.9" cy="256.5" r="2.6"/><circle cx="28.4" cy="245.3" r="2.6"/><circle cx="28.1" cy="233.9" r="2.6"/><circle cx="28.2" cy="222.7" r="2.6"/><circle cx="28.2" cy="200.5" r="2.6"/><circle cx="28.4" cy="189.0" r="2.6"/><circle cx="28.0" cy="177.9" r="2.6"/><circle cx="254.1" cy="334.4" r="2.6"/><circle cx="110.5" cy="289.7" r="2.6"/><circle cx="219.0" cy="225.8" r="2.6"/><circle cx="209.3" cy="142.7" r="2.6"/><circle cx="206.1" cy="223.3" r="2.6"/><circle cx="252.8" cy="216.0" r="2.6"/><circle cx="287.9" cy="215.3" r="2.6"/><circle cx="295.8" cy="239.4" r="2.6"/><circle cx="410.1" cy="286.3" r="2.6"/>
  </g>
  <text x="44" y="362" font-family="system-ui, sans-serif" font-size="21" letter-spacing="3" fill="rgba(255,255,255,0.95)">Infrastructure</text>
  <text x="44" y="384" font-family="system-ui, sans-serif" font-size="12" letter-spacing="1" fill="rgba(255,255,255,0.65)">REAL GEOMETRY · 197 points</text>
</svg>
